# xmcd
#
# Track frame offsets: 
#        150
#        15587
#        30259
#        45993
#        59380
#        76149
#        90832
#        103023
#        115430
#        130166
#        141636
#
# Disc length: 2118 seconds
#
# Revision: 0
# Processed by: cddbd v1.5.2PL0 Copyright (c) Steve Scherf et al.
# Submitted via: ExactAudioCopy v1.0b4
#
DISCID=8208440b
DTITLE=Don Williams - My Heart To You
DYEAR=2004
DGENRE=
TTITLE0=Wonderful Tonight
TTITLE1=When I'm With You
TTITLE2=The Rose
TTITLE3=I'll Be Faithful To You
TTITLE4=Oh Misery
TTITLE5=My Heart To You
TTITLE6=One Like You
TTITLE7=Years From Now
TTITLE8=Get Away
TTITLE9=Fly Away
TTITLE10=Running In The Fast Lane
EXTD=
EXTT0=
EXTT1=
EXTT2=
EXTT3=
EXTT4=
EXTT5=
EXTT6=
EXTT7=
EXTT8=
EXTT9=
EXTT10=
PLAYORDER=
